<?xml version="1.0" standalone="no"?>
<!DOCTYPE svg PUBLIC "-//W3C//DTD SVG 1.1//EN" "http://www.w3.org/Graphics/SVG/1.1/DTD/svg11.dtd">
<svg xmlns="http://www.w3.org/2000/svg">
<metadata>Generated by Fontastic.me</metadata>
<defs>
<font id="inmobiliaria" horiz-adv-x="512">
<font-face font-family="inmobiliaria" units-per-em="512" ascent="480" descent="-32"/>
<missing-glyph horiz-adv-x="512" />

<glyph glyph-name="bathroom" unicode="&#97;" d="M471 231l-446 0c-5 0-8 3-8 8 0 5 3 8 8 8l446 0c5 0 9-3 9-8 0-5-4-8-9-8m0 33l-8 0 0 173c0 42-33 75-74 75-37 0-63-27-66-67-19-4-34-21-34-41 0-4 4-8 9-8l66 0c5 0 8 4 8 8 0 20-14 37-32 41 2 26 17 50 49 50 32 0 58-26 58-58l0-173-249 0c-4 19-21 33-41 33l0 0c-8 10-20 16-33 16-16 0-30-9-37-22-6 4-13 6-21 6-20 0-36-14-40-33l-1 0c-14 0-25-11-25-25 0-14 11-25 25-25l10 0 22-88c6-26 30-44 56-44l6 0-11-21c-2-4 0-9 4-11 1-1 3-1 4-1 3 0 6 1 7 4l14 29 230 0 14-29c2-3 5-4 8-4 1 0 2 0 3 1 5 2 6 7 4 11l-11 21c26 1 48 19 54 44l22 88 10 0c14 0 25 11 25 25 0 14-11 25-25 25m-173 78c4 0 8 4 8 8l0 4c0 5-4 9-8 9-5 0-8-4-8-9l0-4c0-4 3-8 8-8m0-38c4 0 8 4 8 8l0 10c0 4-4 8-8 8-5 0-8-4-8-8l0-10c0-4 3-8 8-8m0-32c4 0 8 3 8 8l0 4c0 5-4 8-8 8-5 0-8-3-8-8l0-4c0-5 3-8 8-8m33 70c4 0 8 4 8 8l0 4c0 5-4 9-8 9-5 0-8-4-8-9l0-4c0-4 3-8 8-8m-8-30c0-4 3-8 8-8 4 0 8 4 8 8l0 10c0 4-4 8-8 8-5 0-8-4-8-8z m0-32c0-5 3-8 8-8 4 0 8 3 8 8l0 4c0 5-4 8-8 8-5 0-8-3-8-8z m41 62c5 0 8 4 8 8l0 4c0 5-3 9-8 9-5 0-8-4-8-9l0-4c0-4 3-8 8-8m-8-30c0-4 3-8 8-8 5 0 8 4 8 8l0 10c0 4-3 8-8 8-5 0-8-4-8-8z m0-32c0-5 3-8 8-8 5 0 8 3 8 8l0 4c0 5-3 8-8 8-5 0-8-3-8-8z"/>
<glyph glyph-name="bed" unicode="&#98;" d="M100 311c0 12 5 23 13 31 8 8 19 13 31 13l75 0c12 0 23-5 31-13 2-2 4-5 6-8 2 3 4 6 6 8 8 8 19 13 31 13l75 0c12 0 23-5 31-13 8-8 13-19 13-31l0-17 26 0 0 60c0 12-5 24-13 32-8 8-19 13-32 13l-274 0c-13 0-24-5-32-13-8-8-13-20-13-32l0-60 26 0 0 17z m44 31c-9 0-16-4-22-9-5-6-9-13-9-22l0-17 137 0 0 17c0 9-4 16-9 22-6 5-13 9-22 9z m255-48l0 17c0 9-4 16-9 22-6 5-13 9-22 9l-75 0c-8 0-16-4-21-9-6-6-9-13-9-22l0-17z m86-27c-9 9-20 14-32 14l-394 0c-12 0-23-5-32-14-8-8-13-19-13-31l0-99c0-4 2-8 5-11 3-3 7-4 11-4l45 0c4 0 8 1 11 4 2 3 4 7 4 11l0 11 332 0 0-11c0-4 2-8 4-11 3-3 7-4 11-4l45 0c5 0 8 1 11 4 3 3 5 7 5 11l0 99c0 12-5 23-13 31z"/>
<glyph glyph-name="heating" unicode="&#99;" d="M344 51l10 0 0 265-10 0z m-52 0l9 0 0 265-9 0z m-52 0l9 0 0 265-9 0z m-53 0l10 0 0 265-10 0z m-52 0l9 0 0 265-9 0z m287 300c-8 0-15-4-18-11-1 0-1 0-1 0l-6 0 0 12c0 13-10 23-22 23-11 0-21-10-21-23l0-12-10 0 0 12c0 13-9 23-21 23-12 0-22-10-22-23l0-12-9 0 0 12c0 13-10 23-22 23-11 0-21-10-21-23l0-12-9 0 0 12c0 13-10 23-22 23-12 0-21-10-21-23l0-12-10 0 0 12c0 13-10 23-21 23-12 0-22-10-22-23l0-12-9 0 0 12c0 13-10 23-22 23-12 0-21-10-21-23l0-12-13 0c-6 0-11-6-11-12 0-7 5-12 11-12l13 0 0-265-13 0c-6 0-11-5-11-12 0-6 5-11 11-11l13 0 0-5c0-12 9-23 21-23 12 0 22 11 22 23l0 5 9 0 0-5c0-12 10-23 22-23 11 0 21 11 21 23l0 5 10 0 0-5c0-12 9-23 21-23 12 0 22 11 22 23l0 5 9 0 0-5c0-12 10-23 21-23 12 0 22 11 22 23l0 5 9 0 0-5c0-12 10-23 22-23 12 0 21 11 21 23l0 5 10 0 0-5c0-12 10-23 21-23 12 0 22 11 22 23l0 5 6 0c5 0 10 5 10 11 0 7-5 12-10 12l-6 0 0 265 6 0c0 0 0 0 1 0 3-7 10-12 18-12 12 0 22 11 22 24 0 13-10 23-22 23z m-267 90c0-4-1-13-1-17-1-2-1-3-1-3-1-7 0-12 1-15 2-8 10-13 17-18 4-2 9-5 9-7l0-6 4 4c2 1 4 3 4 5 0 4-4 7-8 12-5 5-11 10-11 16 0 4 1 13 2 18 0 1 0 2 0 2 0 1 0 1 0 1 0 1 0 3 0 5 0 3 1 6 0 10-3 7-11 13-18 17-4 3-9 6-9 8l1 5-5-4c-2-1-3-3-3-5-1-3 3-7 7-11 5-5 11-11 11-17m157-83l2 6c1 2 6 4 12 7 8 3 18 7 24 14 2 3 4 9 6 16l0 1c0 0 1 1 1 3 1 5 4 15 5 18 3 7 11 12 18 16 6 4 12 8 12 12 1 2 0 4-1 5l-3 5-2-5c-1-3-7-5-12-7-8-4-19-8-24-15-2-4-4-8-5-11 0-2-1-3-1-5 0 0 0 0-1 0 0-1 0-2 0-3-1-5-4-15-6-19-2-7-10-12-17-16-6-4-12-7-13-12 0-2 0-3 2-5z m-87 38l5-3-1 5c0 3 5 6 9 10 7 5 15 11 17 20 1 4 2 10 1 18 0 0 0 1 0 3-1 5-2 16-2 20 1 7 6 14 11 20 5 5 8 9 8 14 0 2-1 4-3 5l-5 4 1-6c0-2-5-6-9-9-7-5-15-12-17-21-2-4-1-8-1-12 0-1 0-3 0-5 0 0 0 0 0 0 0-1 0-2 0-4 1-4 2-15 2-19-1-8-6-14-11-20-5-5-9-10-8-14 0-3 1-4 3-6"/>
<glyph glyph-name="camera" unicode="&#100;" d="M488 55c0-17-14-31-31-31l-407 0c-17 0-30 14-30 31l0 244c0 17 13 31 30 31l407 0c17 0 31-14 31-31z m-393 307c0 8 7 15 16 15 9 0 16-7 16-15l0-12-32 0z m157 31l126 0 26-43-178 0z m205-43l-30 0-34 58c-2 3-5 5-9 5l-137 0c-4 0-7-2-9-5l-35-58-56 0 0 12c0 19-16 35-36 35-20 0-36-16-36-35l0-12-25 0c-27 0-50-23-50-51l0-244c0-28 23-50 50-50l407 0c28 0 51 22 51 50l0 244c0 28-23 51-51 51z m-142-48c-16 0-32-3-48-10-5-2-7-7-5-13 2-5 8-7 13-5 13 6 26 8 40 8 58 0 105-47 105-105 0-58-47-105-105-105-58 0-105 47-105 105 0 14 3 28 8 41 2 5 0 10-5 13-5 2-11-1-13-6-6-15-10-31-10-48 0-69 56-125 125-125 69 0 125 56 125 125 0 69-56 125-125 125m0-63c34 0 62-28 62-62 0-34-28-61-62-61-34 0-61 27-61 61 0 34 27 62 61 62m0-143c45 0 82 36 82 81 0 45-37 81-82 81-44 0-81-36-81-81 0-45 37-81 81-81m0 100c11 0 20-8 20-19 0-5 4-10 10-10 5 0 10 5 10 10 0 22-18 39-40 39-5 0-10-4-10-10 0-5 5-10 10-10m0 243c6 0 10 5 10 10l0 53c0 6-4 10-10 10-5 0-10-4-10-10l0-53c0-5 5-10 10-10m48 0c2 0 5 1 7 3l36 37c4 3 4 10 0 14-4 3-10 3-14 0l-36-37c-4-4-4-10 0-14 1-2 4-3 7-3m-102 3c2-2 5-3 7-3 3 0 5 1 7 3 4 4 4 10 0 14l-36 37c-4 3-10 3-14 0-4-4-4-11 0-14z m-124-174l-52 0c-5 0-10-4-10-10 0-5 5-9 10-9l52 0c5 0 10 4 10 9 0 6-5 10-10 10m97-19c3 0 5 1 7 2 2 2 3 5 3 7 0 3-1 6-3 7-2 2-4 3-7 3-3 0-5-1-7-3-2-1-3-4-3-7 0-2 1-5 3-7 2-1 4-2 7-2"/>
<glyph glyph-name="building" unicode="&#101;" d="M478 23l-452 0c-6 0-11 5-11 11 0 7 5 12 11 12l452 0c6 0 11-5 11-12 0-6-5-11-11-11z m-430 464c0 6 5 10 11 10l234 0c5 0 10-4 10-10l0-181-63 0c-10 0-19-8-19-18l0-170c0-4 4-8 8-8 4 0 7 4 7 8l0 170c0 2 2 4 4 4l212 0c2 0 4-2 4-4l0-227-220 0 0 22c0 4-3 8-7 8-4 0-8-4-8-8l0-22-173 0z m430-426l-8 0 0 227c0 10-8 18-18 18l-134 0 0 181c0 14-12 25-25 25l-234 0c-14 0-25-11-25-25l0-426-8 0c-14 0-26-12-26-27 0-14 12-26 26-26l452 0c14 0 26 12 26 26 0 15-12 27-26 27z m-393 361l30 0 0 30-30 0z m30 45l-30 0c-8 0-14-7-14-15l0-30c0-8 6-15 14-15l30 0c9 0 15 7 15 15l0 30c0 8-6 15-15 15z m46-45l30 0 0 30-30 0z m30 45l-30 0c-9 0-15-7-15-15l0-30c0-8 6-15 15-15l30 0c8 0 14 7 14 15l0 30c0 8-6 15-14 15z m45-45l30 0 0 30-30 0z m0-15l30 0c8 0 15 7 15 15l0 30c0 8-7 15-15 15l-30 0c-8 0-15-7-15-15l0-30c0-8 7-15 15-15z m-151-77l30 0 0 30-30 0z m30 45l-30 0c-8 0-14-7-14-15l0-30c0-8 6-15 14-15l30 0c9 0 15 7 15 15l0 30c0 8-6 15-15 15z m46-45l30 0 0 30-30 0z m30 45l-30 0c-9 0-15-7-15-15l0-30c0-8 6-15 15-15l30 0c8 0 14 7 14 15l0 30c0 8-6 15-14 15z m45-45l30 0 0 30-30 0z m0-15l30 0c8 0 15 7 15 15l0 30c0 8-7 15-15 15l-30 0c-8 0-15-7-15-15l0-30c0-8 7-15 15-15z m-151-77l30 0 0 30-30 0z m30 45l-30 0c-8 0-14-7-14-15l0-30c0-8 6-15 14-15l30 0c9 0 15 7 15 15l0 30c0 8-6 15-15 15z m46-45l30 0 0 30-30 0z m30 45l-30 0c-9 0-15-7-15-15l0-30c0-8 6-15 15-15l30 0c8 0 14 7 14 15l0 30c0 8-6 15-14 15z m-106-137l30 0 0 30-30 0z m30 45l-30 0c-8 0-14-7-14-15l0-30c0-8 6-15 14-15l30 0c9 0 15 7 15 15l0 30c0 8-6 15-15 15z m46-45l30 0 0 30-30 0z m30 45l-30 0c-9 0-15-7-15-15l0-30c0-8 6-15 15-15l30 0c8 0 14 7 14 15l0 30c0 8-6 15-14 15z m77 38l24 0 0 23-24 0z m-2-15l29 0c7 0 12 6 12 13l0 27c0 7-5 13-12 13l-29 0c-7 0-13-6-13-13l0-27c0-7 6-13 13-13z m2-46l24 0 0 24-24 0z m-2-14l29 0c7 0 12 5 12 12l0 28c0 7-5 13-12 13l-29 0c-7 0-13-6-13-13l0-28c0-7 6-12 13-12z m2-46l24 0 0 24-24 0z m-2-15l29 0c7 0 12 6 12 13l0 28c0 7-5 12-12 12l-29 0c-7 0-13-5-13-12l0-28c0-7 6-13 13-13z m68 136l24 0 0 23-24 0z m-3-15l29 0c7 0 13 6 13 13l0 27c0 7-6 13-13 13l-29 0c-6 0-12-6-12-13l0-27c0-7 6-13 12-13z m3-46l24 0 0 24-24 0z m-3-14l29 0c7 0 13 5 13 12l0 28c0 7-6 13-13 13l-29 0c-6 0-12-6-12-13l0-28c0-7 6-12 12-12z m3-46l24 0 0 24-24 0z m-3-15l29 0c7 0 13 6 13 13l0 28c0 7-6 12-13 12l-29 0c-6 0-12-5-12-12l0-28c0-7 6-13 12-13z m68 136l25 0 0 23-25 0z m-2-15l29 0c7 0 12 6 12 13l0 27c0 7-5 13-12 13l-29 0c-7 0-13-6-13-13l0-27c0-7 6-13 13-13z m2-46l25 0 0 24-25 0z m-2-14l29 0c7 0 12 5 12 12l0 28c0 7-5 13-12 13l-29 0c-7 0-13-6-13-13l0-28c0-7 6-12 13-12z m2-46l25 0 0 24-25 0z m-2-15l29 0c7 0 12 6 12 13l0 28c0 7-5 12-12 12l-29 0c-7 0-13-5-13-12l0-28c0-7 6-13 13-13z m6 248c5-4 12-4 17 0 13 9 43 35 52 71 1 4-2 8-6 9-4 1-8-2-9-6-7-31-36-55-46-62-11 9-48 39-48 78 0 26 22 48 48 48 21 0 39-13 46-33 1-4 5-6 9-5 4 1 6 6 5 9-9 26-32 44-60 44-34 0-62-29-62-63 0-47 41-81 54-90m8 70c-11 0-20 9-20 20 0 11 9 20 20 20 11 0 20-9 20-20 0-11-9-20-20-20m0 55c-19 0-35-16-35-35 0-19 16-35 35-35 20 0 35 16 35 35 0 19-15 35-35 35"/>
<glyph glyph-name="hotel" unicode="&#102;" d="M476 30l-29 0 0 466c0 9-7 16-16 16l-350 0c-9 0-16-7-16-16l0-466-29 0c-8 0-15-7-15-15 0-8 7-15 15-15l440 0c8 0 15 7 15 15 0 8-7 15-15 15z m-187 414l61 0 0-61-61 0z m0-94l61 0 0-61-61 0z m0-94l61 0 0-61-61 0z m-127 188l61 0 0-61-61 0z m0-94l61 0 0-61-61 0z m0-94l61 0 0-61-61 0z m63-128l62 0 0-98-62 0z"/>
<glyph glyph-name="laptop" unicode="&#103;" d="M86 178l343 0c4 0 8 1 11 4 3 3 5 7 5 11l0 213c0 8-7 15-16 15l-343 0c-9 0-16-7-16-15l0-213c0-8 7-15 16-15z m-9 228c0 4 4 8 9 8l343 0c5 0 9-4 9-8l0-213c0-5-4-8-9-8l-343 0c-5 0-9 3-9 8z m368-240c-1 2-3 4-6 4l-371 0c-2 0-4-2-5-4l-36-73c0-1 0-2 0-3 0-3 3-6 6-6l136 0c3 0 5 1 6 3l16 33c0 0 1 1 1 1l130 0c1 0 1-1 2-2l12-31c1-3 4-4 7-4l135 0c3 0 5 1 6 3 1 2 1 4 0 6z m-102-75l-13 31c-1 4-5 6-8 6l-130 0c-3 0-6-2-8-5l-15-32-135 0 35 71 370 0 38-71z m167-3l-46 94 0 249c0 9-7 16-16 16l-386 0c-9 0-16-7-16-16l0-249-44-95c-3-5-2-10 1-15 2-4 7-7 13-7l480 0 0 0c6 0 11 3 13 7 3 5 4 11 1 16z m-14-16l-480 0c-1 0-2 1-4 1-4 2-6 7-4 11l45 96 0 251c0 5 4 9 9 9l386 0c5 0 9-4 9-9l0-250 47-96c0-2 1-3 1-4 0-2-1-5-3-6-1-2-4-3-6-3z m-303 39l-10-27 143 0-10 27z m0-20l5 13 113 0 4-13z"/>
<glyph glyph-name="area" unicode="&#104;" d="M505 133l-111 0 0 246 111 0c4 0 7 3 7 7 0 4-3 8-7 8l-111 0 0 111c0 4-4 7-8 7-4 0-7-3-7-7l0-111-246 0 0 111c0 4-3 7-7 7-4 0-8-3-8-7l0-111-111 0c-4 0-7-4-7-8 0-4 3-7 7-7l111 0 0-246-111 0c-4 0-7-3-7-7 0-4 3-8 7-8l111 0 0-111c0-4 4-7 8-7 4 0 7 3 7 7l0 111 246 0 0-111c0-4 3-7 7-7 4 0 8 3 8 7l0 111 111 0c4 0 7 4 7 8 0 4-3 7-7 7z"/>
<glyph glyph-name="coins" unicode="&#105;" d="M469 283l0 40c10 4 19 8 26 12l0-35c0-5-9-11-26-17z m0-111c-1-5-14-13-37-20-30-9-78-18-137-20-3 0-7-1-10-1-2 0-5 0-7 0-7 0-15 0-22 0-7 0-15 0-22 0-2 0-5 0-7 0-3 0-6 1-10 1-59 2-107 11-137 20-22 7-35 14-37 20 2-1 5-2 8-3 0 0 0 0 1 0 2-1 4-1 7-2 1 0 1 0 2-1 2 0 3 0 5-1 31-8 70-13 113-16 0 0 0 0 0 0l0 0c13 0 27-1 41-1 3 0 7 0 10 0 5 0 10 0 15 0 12 0 25 1 37 1 0 0 0 0 0 0 0 0 0 0 0 0 14 1 29 2 42 4 0 0 0 0 0 0 0 0 1 0 1 0 15 2 29 4 43 6 2 1 5 1 8 2 0 0 1 0 2 0 25 5 47 12 62 20 0 1 1 1 2 2 1 0 2 1 3 1 1 1 1 1 2 2 17-6 22-11 22-14z m-25-75l0 40c10 4 19 8 25 12l0-35c0-5-9-11-25-17z m-401 17l0 35c6-4 15-8 25-12l0-40c-16 6-25 12-25 17z m-26 93l0 35c7-4 16-8 26-12l0-40-5 2 0 0c-14 5-21 11-21 15z m41 77c1 0 1 0 1 0 12-12 36-21 66-28 1 0 1 0 2 0 2-1 4-1 7-2 27-5 60-10 96-12l0 0c12 0 24-1 36-1 5 0 10 0 16 0 6 0 12 0 18 0 11 0 22 1 33 1 0 0 0 0 0 0 0 0 0 0 0 0 36 2 70 7 99 13-7-3-15-7-26-10-32-10-82-19-147-21-2 0-4 0-6 0-2 0-4 0-6 0-6 0-11 0-17 0-7 0-14 0-21 0-3 0-5 0-8 0-3 0-6 1-9 1-60 2-107 11-137 20-24 7-37 15-38 21 1 3 10 11 41 18z m-41 117l0 35c7-4 16-8 26-11l0-41c-17 6-26 13-26 17z m213 93c141 0 212-22 214-34-1-6-15-14-38-21-30-9-77-17-137-20-3 0-6 0-9 0-3 0-5 0-8-1-7 0-14 0-22 0-7 0-14 0-21 0-3 1-5 1-8 1-3 0-6 0-9 0-60 3-107 11-137 20-24 7-37 15-38 21 2 12 73 34 213 34z m265-135c-1-6-14-14-38-21-30-9-77-18-137-20-3 0-6-1-9-1-3 0-5 0-8 0-7 0-14 0-21 0-8 0-15 0-22 0-3 0-5 0-8 0-3 0-6 1-9 1-60 2-107 11-137 20-24 7-37 15-38 20 0 1 0 1 1 1 0 0 1 0 1-1 4 0 7-1 11-2 17-3 35-6 55-9 0 0 0 0 1 0l0 0c13-1 27-2 42-3 0 0 0 0 0 0 0 0 0 0 0 0 11-1 21-1 32-2 7 0 13 0 19 0 5 0 9 0 14 0 62 1 120 9 160 20 1 0 3 1 5 1 1 1 2 1 3 1 3 1 6 2 9 3 1 1 1 1 2 1 2 1 4 2 7 3 0 0 1 0 1 1 3 1 5 2 7 3 1 0 2 1 3 1 1 1 2 2 3 2 0 1 1 1 2 1 38-8 48-17 49-20z m-46-83c-5-1-9-2-14-3-2-1-4-1-6-2-1 0-2 0-2 0l0 41c9 2 17 4 25 6l0-41c-1 0-2 0-3-1z m-98-16c-3 0-6 0-10 0l0 42c9 0 18 1 26 2l0-42c-5-1-10-1-15-1 0-1-1-1-1-1z m58 8c-4-1-8-2-12-2-2-1-4-1-6-1-3-1-5-1-7-1l0 42c9 1 17 2 26 3l0-41c-1 0-1 0-1 0z m-110 32c8 0 17 0 25 1l0-42c-11-1-22-1-34-1l0 42c2 0 5 0 7 0 1 0 1 0 2 0z m-205 23l0-40c-14 5-22 11-25 15l-1 1c0 0 0 1 0 1l0 35c7-4 16-8 26-12z m43-11l0-41c-10 2-18 4-26 6l0 41c8-2 16-4 26-6z m26-46c-3 1-6 1-9 2l0 41c8-1 16-2 25-3l0-42c-5 1-10 1-15 2 0 0 0 0-1 0z m57-6c-1 0-3 0-4 0-5 1-11 1-16 2-1 0-2 0-3 0 0 0 0 0-1 0l0 42c9-1 17-2 26-2l0-42c-1 0-2 0-2 0z m-92 147l0-42c-2 1-3 1-5 1-1 0-2 0-3 0-5 1-10 2-15 3-1 0-2 0-3 0l0 42c9-2 17-3 26-4z m17-44l0 42c8-1 17-1 26-2l0-42c-9 1-18 1-26 2z m171 42l0-42c-8 0-17-1-26-2l0 42c9 1 17 1 26 2z m59-32l0 41c10 1 18 3 26 6l0-41c-8-2-16-5-26-6z m-42-8l0 42c9 1 17 2 25 4l0-42c-8-1-16-2-25-4z m109 32l0 0-4-2c-4-4-11-7-20-10l0 40c10 3 19 7 26 11l0-35c0-1-1-2-2-4z m-195 4c9 1 18 1 26 1l0-42c-1 0-3 0-4 0 0 0 0 0-1 0-5 0-11-1-17-1-1 0-2 0-3 0-3 0-6 0-9 0l0 42c2 0 5 0 7 0 0 0 1 0 1 0z m-32 0c2 0 5 0 7 0l0-42c-12 0-23 1-34 1l0 42c8 0 17 0 25-1 1 0 1 0 2 0z m-155-22l0 41c8-3 16-5 25-6l0-42c-1 1-2 1-3 1-4 1-9 2-13 3-3 1-6 2-9 3z m199-121c-7 0-13 0-19 1 0 0-1 0-1 0l0 42c8-1 17-1 26-1 0 0 1 0 1 0 2 0 5 0 7 0l0-42c-4 0-8 0-12 0-1 0-2 0-2 0z m116-39c10 2 18 4 26 6l0-41c-8-2-16-4-26-6z m-42-48l0 42c9 1 17 2 25 3l0-41c-8-2-16-3-25-4z m-37-4c-2 0-4 0-6 0l0 42c9 0 17 1 26 2l0-42c-6-1-11-1-16-2-2 0-3 0-4 0z m-168 46l0-42c-9 1-18 2-26 4l0 41c9-1 17-2 26-3z m22-45c-1 1-2 1-3 1l-2 0 0 42c8-1 17-2 26-2l0-42c-8 0-15 1-21 1z m21-50c8-1 17-2 25-2l0-42c-9 0-17 1-25 2z m-43 5c8-1 17-2 26-3l0-42c-9 1-18 2-26 4z m-17 3l0-41c-9 2-18 4-26 6l0 41c8-2 17-4 26-6z m290 0c9 2 18 4 26 6l0-41c-8-2-16-4-26-6z m-43-6c9 1 18 2 26 3l0-41c-8-2-17-3-26-4z m-17-2l0-42c-8-1-16-2-25-2l0 42c8 0 17 1 25 2z m-68-4c9 0 17 1 26 1l0-42c-11-1-23-1-34-1l0 42c2 0 4 0 7 0 0 0 0 0 1 0z m-33 0c3 0 5 0 7 0l0-42c-11 0-23 0-34 1l0 42c9 0 17-1 26-1 1 0 1 0 1 0z m-179 70c-1 0-1 0-1 0l0 41c8-2 16-4 25-6l0-41c-7 2-15 3-21 5-1 1-2 1-3 1z m154-19c-4 0-8 0-12 0 0 0-1 0-1 0-5 0-10 1-14 1l0 42c8 0 17-1 25-1 1 0 1 0 2 0 2 0 5 0 7 0l0-42c-2 0-3 0-5 0-1 0-2 0-2 0z m37 0c-1 0-3 0-4 0-3 0-6 0-9 0l0 42c2 0 5 0 7 0 0 0 1 0 1 0 9 0 18 1 26 1l0-42c-2 0-4 0-5-1-6 0-11 0-16 0z m191 39l-3-2c-5-4-12-8-22-12l0 40c10 4 19 8 26 12l0-35c0-1-1-2-1-3z m69 155c-1 15-18 26-53 34 1 3 2 6 2 8l0 59 0 0c-3 50-207 51-231 51-23 0-227-1-230-51l0 0 0-59c0-16 21-28 52-38 0-1-1-2-1-4l0 0 0-59c-33-9-50-20-51-34l0 0 0-59c0-11 10-21 27-29-1-1-1-3-1-5l0 0 0-59c0-28 64-46 135-54 0 0 1 0 1 0 0 0 0 0 1 0 13-1 27-3 41-4 0 0 1 0 1 0 0 0 0 0 0 0 18-1 35-1 51-1 16 0 33 0 51 1 0 0 0 0 0 0 1 0 1 0 1 0 14 1 28 3 41 4 1 0 1 0 1 0 0 0 1 0 1 0 71 8 135 26 135 54l0 59 0 0c0 10-9 19-27 26 1 3 2 5 2 8l0 55c30 10 51 22 51 38l0 59z"/>
<glyph glyph-name="parking" unicode="&#106;" d="M412 118l-49 0c-9 0-16 8-16 16 0 9 7 16 16 17l49 0c6 0 12-3 15-8 3-5 3-12 0-17-3-5-9-8-15-8z m-104 3l-115 0c-6 0-11 5-11 11 0 5 5 10 11 10l115 0c6 0 10-5 10-10 0-6-4-11-10-11z m-175-3l-50 0c-6 0-11 3-14 8-3 5-3 12 0 17 3 5 8 8 14 8l50 0c8-1 15-8 15-17 0-8-7-16-15-16z m-24 153c15 42 27 55 51 55l180 0c24 0 37-14 51-54l27-56c-9 4-19 6-29 6l-281 0c-9 0-18-2-27-5z m354-113c-1 8-2 16-6 24 0 2-1 3-1 5l-37 93-1 0c-13 39-31 75-78 75l-180 0c-48 0-65-37-78-74l-39-93c-6-9-9-19-9-30l0-29c0-4 0-9 2-13-2-2-2-5-2-8l0-85c0-13 10-23 23-23l47 0c12 0 22 10 22 23l0 42 247 0 0-42c0-13 10-23 22-23l45 0c12 0 23 10 23 23l0 85c0 3-1 6-2 8 1 4 2 9 2 13z m-434 183c-6 0-11 4-13 10-2 6 1 12 6 16l215 143c4 3 10 3 14 0l238-137c5-3 8-7 8-13 0-5-3-9-7-12-5-2-10-2-14 1l-231 133-208-138c-2-2-5-3-8-3z"/>
<glyph glyph-name="location" unicode="&#107;" d="M256 0l-65 93c-27 40-54 79-81 118-27 39-36 82-33 129 3 35 13 68 34 97 32 46 76 71 132 75 67 4 121-21 159-76 28-39 36-84 33-132-3-37-17-71-38-102-46-65-91-130-136-195-2-2-3-4-5-7z m2 269c36 0 65 29 66 65 0 36-30 66-66 66-37 0-66-29-66-65 0-37 29-66 65-66z"/>
<glyph glyph-name="video" unicode="&#108;" d="M256 512c-141 0-256-115-256-256 0-141 115-256 256-256 141 0 256 115 256 256 0 141-115 256-256 256z m123-274l-188-108c-6-4-14-4-20 0-7 4-11 11-11 18l0 216c0 7 4 14 11 18 6 4 14 4 20 0l188-108c6-4 10-11 10-18 0-7-4-14-10-18z"/>
<glyph glyph-name="chevron-down" unicode="&#109;" d="M485 397l-229-229-229 229-27-27 256-255 256 255z"/>
<glyph glyph-name="chevron-right" unicode="&#110;" d="M142 512l-27-27 229-229-229-229 27-27 255 256z"/>
<glyph glyph-name="email-1" unicode="&#111;" d="M486 427l-460 0c-14 0-26-12-26-27l0-288c0-15 12-27 26-27l460 0c14 0 26 12 26 27l0 288c0 15-12 27-26 27z m-10-20l-205-154c-4-2-9-4-15-4-6 0-11 2-15 4l-205 154z m-109-164l111-138c0 0 0 0 0 0l-444 0c0 0 0 0 0 0l112 138c3 4 2 11-2 14-4 4-10 3-14-1l-110-137 0 276 209-157c8-6 18-9 27-9 9 0 19 3 27 9l209 157 0-276-110 137c-4 4-10 5-14 1-4-3-5-10-1-14z"/>
<glyph glyph-name="email-dark" unicode="&#112;" d="M512 406l-180-150 180-120 0 267c0 1 0 2 0 3z m-197-163l-22-19c-11-9-24-13-37-13-13 0-26 4-37 13l-22 19-197-131 0-3c0-11 9-20 20-20l472 0c11 0 20 9 20 20l0 3z m177 180c0 0 0 0 0 0l-472 0c0 0 0 0 0 0-3 0-4-4-2-5l186-155c0 0 0 0 0 0l28-24c14-11 34-11 48 0l214 179c2 1 1 5-2 5z m-492-17c0-1 0-2 0-3l0-267 180 120z"/>
<glyph glyph-name="facebook" unicode="&#113;" d="M341 427l47 0 0 81c-8 2-36 4-68 4-67 0-114-42-114-120l0-72-74 0 0-91 74 0 0-229 92 0 0 229 71 0 11 91-82 0 0 63c0 26 7 44 43 44z"/>
<glyph glyph-name="facebook-circle" unicode="&#114;" d="M255 512c-141 0-255-114-255-255 0-141 114-256 255-256 141 0 256 115 256 256 0 141-115 255-256 255z m98-130l-36 0c-27 0-33-13-33-33l0-42 66 0 0-67-66 0 0-171-68 0 0 171-58 0 0 67 58 0 0 49c0 57 34 88 85 88l52 0 0-62z"/>
<glyph glyph-name="twitter" unicode="&#115;" d="M512 415c-19-9-39-14-60-17 21 13 38 34 46 58-21-12-43-20-67-25-19 20-47 33-77 33-58 0-104-47-104-105 0-8 0-16 2-24-87 4-164 46-216 110-9-16-15-34-15-53 0-37 19-69 47-87-17 0-34 5-48 13 0-1 0-1 0-2 0-51 37-93 85-103-9-2-18-3-28-3-7 0-13 0-20 2 14-42 52-73 98-74-35-28-81-44-130-44-8 0-17 0-25 1 46-30 102-47 161-47 193 0 299 160 299 299 0 4 0 9-1 13 21 15 39 34 53 55z"/>
<glyph glyph-name="instagram" unicode="&#116;" d="M352 512l-192 0c-88 0-160-72-160-160l0-192c0-88 72-160 160-160l192 0c88 0 160 72 160 160l0 192c0 88-72 160-160 160z m112-352c0-62-50-112-112-112l-192 0c-62 0-112 50-112 112l0 192c0 62 50 112 112 112l192 0c62 0 112-50 112-112z m-208 224c-71 0-128-57-128-128 0-71 57-128 128-128 71 0 128 57 128 128 0 71-57 128-128 128z m0-208c-44 0-80 36-80 80 0 44 36 80 80 80 44 0 80-36 80-80 0-44-36-80-80-80z m155 218c0-10-8-17-17-17-10 0-17 7-17 17 0 9 7 17 17 17 9 0 17-8 17-17z"/>
<glyph glyph-name="instagram-circle" unicode="&#117;" d="M305 256c0-27-22-49-49-49-27 0-49 22-49 49 0 27 22 49 49 49 27 0 49-22 49-49z m66 87c-3 6-7 12-11 17-5 4-11 8-17 11-5 2-13 4-28 5-15 0-20 1-59 1-39 0-44-1-59-1-15-1-23-3-28-5-6-3-12-7-17-11-4-5-8-11-11-17-2-5-4-13-5-28 0-15-1-20-1-59 0-39 1-44 1-59 1-15 3-23 5-28 3-6 7-12 11-17 5-4 11-8 17-11 5-2 13-4 28-5 15 0 20-1 59-1 39 0 44 1 59 1 15 1 23 3 28 5 13 5 23 15 28 28 2 5 4 13 5 28 0 15 1 20 1 59 0 39-1 44-1 59-1 15-3 23-5 28z m-115-162c-42 0-75 33-75 75 0 42 33 75 75 75 42 0 75-33 75-75 0-42-33-75-75-75z m78 136c-9 0-17 8-17 17 0 10 8 18 17 18 10 0 18-8 18-18 0-9-8-17-18-17z m-78 195c-141 0-256-115-256-256 0-141 115-256 256-256 141 0 256 115 256 256 0 141-115 256-256 256z m146-317c-1-15-3-26-7-35-7-20-23-36-43-43-9-4-20-6-35-7-16-1-21-1-61-1-40 0-45 0-61 1-15 1-26 3-35 7-10 3-19 9-26 17-8 7-14 16-17 26-4 9-6 20-7 35-1 16-1 21-1 61 0 40 0 45 1 61 1 15 3 26 7 35 3 10 9 19 17 26 7 8 16 14 26 17 9 4 20 6 35 7 16 1 21 1 61 1 40 0 45 0 61-1 15-1 26-3 35-7 10-3 19-9 26-17 8-7 14-16 17-26 4-9 6-20 7-35 1-16 1-21 1-61 0-40 0-45-1-61z"/>
<glyph glyph-name="linkedin" unicode="&#118;" d="M512 0l0 0 0 0 0 188c0 92-20 162-127 162-52 0-86-28-101-55l-1 0 0 47-102 0 0-342 106 0 0 169c0 45 9 88 64 88 54 0 55-51 55-91l0-166z m-504 342l107 0 0-342-107 0z m53 170c-33 0-61-28-61-61 0-34 28-63 61-63 34 0 62 29 62 63 0 33-28 61-62 61z"/>
<glyph glyph-name="linkedin-circle" unicode="&#119;" d="M256 512c-141 0-256-115-256-256 0-141 115-256 256-256 141 0 256 115 256 256 0 141-115 256-256 256z m-74-387l-63 0 0 188 63 0z m-32 213l0 0c-21 0-34 15-34 33 0 18 14 32 35 32 21 0 34-14 35-32 0-18-14-33-36-33z m256-213l-62 0 0 100c0 26-9 43-32 43-17 0-27-12-31-23-2-4-3-10-3-15l0-105-62 0c0 0 1 170 0 188l62 0 0-27c9 13 24 31 57 31 41 0 71-27 71-84z"/>
<glyph glyph-name="menu-bullets" unicode="&#120;" d="M486 70l-342 0c-14 0-25 12-25 26 0 14 11 25 25 25l342 0c15 0 26-11 26-25 0-14-11-26-26-26z m0 160l-342 0c-14 0-25 12-25 26 0 14 11 26 25 26l342 0c15 0 26-12 26-26 0-14-11-26-26-26z m0 161l-342 0c-14 0-25 11-25 25 0 14 11 26 25 26l342 0c15 0 26-12 26-26 0-14-11-25-26-25z m-417 23c0-19-16-34-35-34-19 0-34 15-34 34 0 19 15 35 34 35 19 0 35-16 35-35z m0-158c0-19-16-34-35-34-19 0-34 15-34 34 0 19 15 34 34 34 19 0 35-15 35-34z m0-158c0-19-16-35-35-35-19 0-34 16-34 35 0 19 15 34 34 34 19 0 35-15 35-34z"/>
<glyph glyph-name="search" unicode="&#121;" d="M506 36l-146 146c28 35 45 79 45 127 0 112-91 203-202 203-112 0-203-91-203-203 0-111 91-202 203-202 48 0 92 17 127 45l146-146c4-4 9-6 15-6 5 0 11 2 15 6 8 9 8 22 0 30z m-303 113c-89 0-160 72-160 160 0 89 71 160 160 160 88 0 160-71 160-160 0-88-72-160-160-160z"/>
<glyph glyph-name="marker" unicode="&#122;" d="M256 512c-100 0-181-81-181-181 0-97 165-317 173-327 1-2 5-4 8-4 3 0 7 2 8 4 8 10 173 230 173 327 0 100-81 181-181 181z m0-277c-53 0-96 43-96 96 0 53 43 96 96 96 53 0 96-43 96-96 0-53-43-96-96-96z"/>
<glyph glyph-name="menu" unicode="&#65;" d="M491 235l-470 0c-11 0-21 10-21 21 0 12 10 22 21 22l470 0c11 0 21-10 21-22 0-11-10-21-21-21z m0 164l-470 0c-11 0-21 9-21 21 0 12 10 21 21 21l470 0c11 0 21-9 21-21 0-12-10-21-21-21z m0-327l-470 0c-11 0-21 9-21 21 0 12 10 21 21 21l470 0c11 0 21-9 21-21 0-12-10-21-21-21z"/>
<glyph glyph-name="phone" unicode="&#66;" d="M441 68l-60 74c-5 7-15 11-23 11l-25 0c-22-13-64-31-123 70-58 102-21 129 0 142l13 21c4 7 5 19 2 26l-34 89c-3 7-11 12-19 11l-42-8c-82-47-82-188-2-328 81-139 203-209 285-162l28 32c5 6 5 16 0 22z m-135 334c81-22 129-105 107-186-1-6 2-11 8-13 6-2 12 2 13 8 25 92-30 187-122 212-6 2-12-2-14-8-1-5 2-11 8-13z m-11-42c58-15 92-75 77-133-2-5 1-11 7-13 6-1 12 2 13 8 19 69-22 141-92 159-5 2-11-2-13-7-1-6 2-12 8-14z m-11-42c34-9 55-45 46-79-2-6 1-12 7-14 6-1 12 2 14 8 12 46-16 94-62 106-6 2-11-2-13-7-2-6 2-12 8-14z m-12-42c12-3 19-15 16-26-2-6 2-12 7-13 6-2 12 1 14 7 6 23-8 47-31 53-6 2-12-1-13-7-2-6 2-12 7-14z"/>
<glyph glyph-name="pinterest" unicode="&#67;" d="M263 512c-140 0-215-90-215-188 0-45 25-102 66-120 6-3 10-2 11 4 1 4 7 25 9 35 1 3 1 6-2 9-14 16-24 44-24 71 0 68 54 135 147 135 80 0 136-52 136-127 0-84-45-142-103-142-32 0-55 25-48 56 9 37 27 77 27 104 0 24-13 43-41 43-32 0-59-32-59-75 0-28 10-46 10-46 0 0-32-130-38-155-10-41 1-107 2-113 1-3 4-4 6-2 3 5 42 60 53 100 4 15 20 74 20 74 11-19 42-35 75-35 98 0 169 86 169 193 0 102-88 179-201 179z"/>
<glyph glyph-name="twitter-circle" unicode="&#68;" d="M256 512c-141 0-256-115-256-256 0-141 115-256 256-256 141 0 256 115 256 256 0 141-115 256-256 256z m134-210c0-3 0-5 0-8 0-80-60-171-171-171-34 0-66 10-93 27 5-1 10-1 15-1 28 0 54 9 75 26-27 0-49 18-57 41 4 0 8-1 12-1 5 0 11 1 16 3-28 5-49 29-49 59 0 0 0 0 0 0 8-4 18-7 28-7-17 11-27 29-27 50 0 11 3 21 8 30 30-36 74-60 124-63-1 5-1 9-1 14 0 33 27 60 60 60 17 0 33-7 44-19 13 3 26 8 38 15-4-14-14-26-26-33 12 1 23 4 34 9-8-12-18-23-30-31z"/>
<glyph glyph-name="whatsapp" unicode="&#69;" d="M507 265c0-136-112-246-249-246-44 0-85 11-120 30l-138-44 45 133c-23 37-36 81-36 127 0 137 112 247 249 247 137 0 249-110 249-247z m-249 208c-115 0-209-93-209-208 0-45 15-87 40-121l-26-77 80 25c33-22 72-34 115-34 115 0 209 93 209 207 0 115-94 208-209 208z m125-265c-1 3-5 4-11 7-6 4-36 18-42 20-6 2-10 3-14-3-4-6-15-20-19-24-4-4-7-4-13-1-6 3-26 9-49 30-18 16-31 36-34 42-4 6 0 9 3 12 2 3 6 7 9 11 3 3 4 6 6 10 2 4 1 7-1 10-1 3-13 33-18 45-6 12-11 10-14 10-4 0-8 1-12 1-4 0-11-2-16-8-6-6-21-20-21-50 0-30 21-59 24-63 4-4 43-67 105-91 62-24 62-16 73-15 11 1 36 14 41 29 5 14 5 26 3 28z"/>
<glyph glyph-name="youtube" unicode="&#70;" d="M486 376c-5 20-22 37-42 42-38 11-188 11-188 11 0 0-150 0-188-10-20-6-37-23-42-43-10-38-10-116-10-116 0 0 0-78 10-115 5-21 21-37 42-42 38-11 188-11 188-11 0 0 150 0 188 10 20 6 37 22 42 42 10 38 10 116 10 116 0 0 0 78-10 116z m-278-188l0 144 125-72z"/>
<glyph glyph-name="youtube-circle" unicode="&#71;" d="M224 208l83 48-83 48z m32 304c-141 0-256-115-256-256 0-141 115-256 256-256 141 0 256 115 256 256 0 141-115 256-256 256z m160-256c0 0 0-52-7-77-3-14-14-25-28-28-25-7-125-7-125-7 0 0-100 0-125 7-14 4-25 14-28 28-7 25-7 77-7 77 0 0 0 52 7 77 3 14 14 25 28 28 25 7 125 7 125 7 0 0 100 0 125-7 14-4 25-14 28-28 7-25 7-77 7-77z"/>
<glyph glyph-name="quote" unicode="&#72;" d="M76 197l71 0 0 72-71 0z m14 57l42 0 0-42-42 0z m67-57l71 0 0 72-71 0z m14 57l42 0 0-42-42 0z m66-57l72 0 0 72-72 0z m15 57l42 0 0-42-42 0z m-176-140l71 0 0 71-71 0z m14 56l42 0 0-42-42 0z m67-56l71 0 0 71-71 0z m14 56l42 0 0-42-42 0z m66-56l72 0 0 71-72 0z m15 56l42 0 0-42-42 0z m-176-140l71 0 0 71-71 0z m14 57l42 0 0-42-42 0z m67-57l71 0 0 71-71 0z m14 57l42 0 0-42-42 0z m66-57l72 0 0 71-72 0z m15 57l42 0 0-42-42 0z m69-57l71 0 0 155-71 0z m15 140l42 0 0-125-42 0z m133 220c0 55-38 104-92 118-54 14-110-11-137-59l-197 0 0-449 379 0 0 293c30 24 47 59 47 97z m-243-12c0-1 0-2 0-3 0-3 1-6 1-8 0-1 1-2 1-3 0-3 1-6 2-9 0-1 0-1 1-2 3-11 8-22 15-31 0 0 0-1 0-1 1-2 2-3 4-5l-160 0 0 82 135 0c0-3 0-5 0-8 0-4 0-8 1-12z m181-94l0-269-349 0 0 419 175 0c0-1 0-2 0-2-1-3-2-5-3-8 0-2-1-3-1-5-1-2-1-4-2-6l-151 0 0-112 187 0c23-21 53-33 84-33 4 0 7 0 11 0 1 0 2 0 3 0 3 1 7 1 10 2 1 0 1 0 2 1 3 0 6 1 8 2 1 0 2 0 3 1 3 1 6 2 9 3 2 0 3 1 4 1 2 1 4 2 5 3 2 1 3 2 5 2z m3 19c-2-2-4-3-6-4-1-1-2-1-2-2-2-1-4-2-6-3-1 0-2-1-3-1-2-1-4-2-6-3-2-1-5-2-7-3-1 0-3 0-4 0-2-1-4-2-6-2-1 0-2-1-3-1-2 0-5-1-7-1-1 0-2 0-3 0-3 0-7-1-10-1-51 0-94 36-105 85 0 1 0 1 0 1-1 3-1 6-1 9-1 1-1 1-1 2 0 4 0 7 0 11 0 3 0 5 0 8 0 2 1 5 1 7l0 0c0 2 0 4 1 5 0 1 0 2 0 3 1 2 1 5 2 8 1 1 1 2 1 3 1 2 1 3 2 4 1 3 2 5 3 8 1 1 1 2 2 4l1 1c21 39 64 61 108 55 43-5 79-37 90-80 11-43-6-88-41-113z m-87 142c-6-8-10-19-13-32l-16 0 0-15 15 0c-1-3-1-7-1-11 0 0 0 0 0 0l-14 0 0-15 15 0c4-38 24-56 59-56 8 0 15 1 22 4l0 17c-6-1-12-2-16-2-21 0-33 12-36 37l36 0 0 15-37 0c0 0 0 1 0 1 0 4 0 7 0 10l37 0 0 15-35 0c0 0 0 1 0 1 1 7 3 13 6 18 3 4 7 8 11 10 6 3 11 4 17 4 4 0 10-2 17-4l0 17c-7 3-15 5-22 5-20 0-35-7-45-19z"/>
<glyph glyph-name="elevator" unicode="&#73;" d="M284 509c-2 0-30-25-32-27 0-1-1-3-1-5 0-6 4-9 9-9 3 0 5 1 11 6l7 6 0-14c0-8 1-15 1-16 1-2 6-5 9-5 2 0 7 3 8 5 0 1 1 8 1 16l1 14 6-6c6-5 8-6 11-6 6 0 9 3 9 9 0 4-2 6-20 22-13 11-15 12-20 10z m-88-1c-5-2-6-6-6-21 0-12-1-15-2-12-1 1-4 3-7 6-8 7-14 7-18-1-2-6-1-7 26-30 11-9 11-9 29 7 9 7 16 14 17 15 0 1 1 3 1 5 0 5-3 9-8 9-4 0-6-1-13-8-3-2-6-4-6-4-1 0-1 7-1 15 0 14 0 15-2 17-3 3-7 3-10 2z m-128-88c-2-1-4-3-5-5-2-3-2-12-2-208l0-204 27 0 0 392 311 0 0-392 27 0 0 203c0 221 0 208-5 213l-3 2-173 1c-167 0-174 0-177-2z m48-46c-2-1-4-3-5-4-1-3-1-9-1-179 0-168 0-176 1-178 1-2 4-4 5-5 3-2 6-2 127-2 137 0 128 0 132 6 2 3 2 7 2 180l0 176-4 4-4 4-125 0c-114 0-126 0-128-2z m114-183l0-158-94 0 0 158c0 87 0 158 1 158 0 1 21 1 46 1l47-1z m121 0l0-158-94 0 0 317 47 0 47-1z m98 0c-3-2-6-7-6-11 0-7 6-13 14-13 5 0 8 2 11 6 7 11-7 25-19 18z m1-34c-2-1-4-3-5-6-7-16 16-26 24-11 2 4 1 7-1 12-3 6-11 9-18 5z"/>
<glyph glyph-name="balcony" unicode="&#74;" d="M213 404l-43-65 41 0 40 0 0-93-107 0-2-3c-3-3-4-5-1-8 2-3 3-3 13-3l11 0 0-10c0-10 1-13 4-16 1-1 12-1 42-1l40 0 0-138-14 0c-13-1-14-1-18-3-5-3-9-8-10-14l-1-4 96 0 0 4c-1 6-4 11-10 14-4 2-5 2-18 3l-14 0 0 138 40 0c26 0 40 0 41 1 4 2 5 5 5 16l0 10 11 0c9 0 11 0 13 2 2 3 2 8-1 10-2 2-5 2-56 2l-53 0 0 93 41 0 40 0-43 64c-24 36-43 65-43 65 0 0-20-29-44-64z m-91-1c-63-33-116-61-118-62-3-2-3-2 74-2l77 0 28 42c16 23 34 51 42 62 7 11 13 20 12 20 0 0-52-27-115-60z m165 40c8-11 26-39 42-62l28-42 77 0c43 0 77 0 77 0-1 1-236 124-237 124 0 0 6-9 13-20z m-248-159c-1 0-2-2-2-3-1-2 21-146 22-149 2-4 7-4 10-1 1 2 2 3 3 3 1 0 0-8-10-41-6-22-11-40-11-42 0-2 3-5 6-5 1 0 3 1 4 2 1 1 7 21 13 44l12 41 36 1 37 0 12-42c8-29 13-43 14-44 2-2 3-2 5-2 5 2 5 2-7 46-7 22-12 41-12 41 0 1 3 1 7 1 8 0 8 0 6 9-3 13-12 24-25 30l-6 3-45 1c-34 0-45 0-45 1 0 1-4 24-8 52-7 47-8 51-10 53-2 2-3 2-6 1z m429 0c-1-1-2-2-2-3-1-1-4-25-9-53l-7-51-45 0-44-1-8-3c-5-2-9-6-12-9-6-6-12-16-13-24l0-6 7 0c4 0 7 0 7-1 0 0-5-18-11-40-7-22-12-41-12-42 0-4 6-7 9-3 1 1 26 83 26 86 0 0 17 0 37 0l36-1 12-41c7-23 12-42 13-43 1-4 9-3 10 1 0 1-5 20-11 43-10 34-11 41-10 41 1 0 2-1 3-2 2-3 7-4 9-1 1 0 6 31 12 72 6 39 11 72 12 74 0 2 0 3-2 5-3 3-3 3-7 2z"/>
</font>
</defs>
</svg>
